<svg width="21" height="25" viewBox="0 0 21 25" fill="none" xmlns="http://www.w3.org/2000/svg">
<path d="M16.9881 13.2949C17.0005 12.3367 17.255 11.3972 17.728 10.5637C18.2011 9.73029 18.8772 9.03005 19.6936 8.52815C19.175 7.78747 18.4908 7.17792 17.6954 6.74791C16.9 6.31791 16.0153 6.07929 15.1115 6.05101C13.1837 5.84866 11.3147 7.20461 10.3323 7.20461C9.33086 7.20461 7.8183 6.07111 6.18952 6.10462C5.13598 6.13865 4.10922 6.44502 3.20929 6.99385C2.30935 7.54269 1.56693 8.31529 1.05437 9.23636C-1.16597 13.0805 0.490199 18.7302 2.6171 21.8375C3.68123 23.3591 4.92489 25.0587 6.5522 24.9984C8.14462 24.9324 8.73936 23.983 10.6616 23.983C12.5659 23.983 13.1239 24.9984 14.7842 24.9601C16.493 24.9324 17.5695 23.4318 18.5963 21.8958C19.3609 20.8116 19.9493 19.6134 20.3396 18.3454C19.3468 17.9256 18.4997 17.2227 17.9037 16.3246C17.3077 15.4265 16.9893 14.3728 16.9881 13.2949Z" fill="#2D2D2D"/>
<path d="M13.8521 4.00742C14.7838 2.88898 15.2428 1.45141 15.1316 0C13.7082 0.1495 12.3934 0.82979 11.4492 1.90532C10.9875 2.43075 10.6339 3.04201 10.4086 3.70418C10.1833 4.36634 10.0907 5.06642 10.1361 5.76438C10.8481 5.77171 11.5524 5.6174 12.1961 5.31306C12.8397 5.00873 13.406 4.56231 13.8521 4.00742Z" fill="#2D2D2D"/>
</svg>
