<svg width="32" height="32" viewBox="0 0 32 32" fill="none" xmlns="http://www.w3.org/2000/svg">
<path fill-rule="evenodd" clip-rule="evenodd" d="M0 16C0 7.16344 7.16344 0 16 0C24.8366 0 32 7.16344 32 16C32 24.8366 24.8366 32 16 32C7.16344 32 0 24.8366 0 16Z" fill="#4E4D4D"/>
<g clip-path="url(#clip0_11_127)">
<path d="M21.2072 11.5531C20.2237 11.0926 19.1831 10.7655 18.113 10.5803C17.9782 10.8206 17.8229 11.1458 17.7174 11.4037C16.563 11.2308 15.4202 11.2308 14.2862 11.4037C14.1778 11.1458 14.0196 10.8206 13.8848 10.5803C12.7977 10.7679 11.7575 11.099 10.7876 11.5561C8.8303 14.5155 8.29701 17.4017 8.56366 20.2469C9.86171 21.2168 11.1217 21.8057 12.3611 22.1925C12.6659 21.7705 12.9384 21.3252 13.1728 20.8534C12.7245 20.6835 12.2967 20.4725 11.8923 20.2293C12.0007 20.1502 12.1033 20.0652 12.2058 19.9802C14.673 21.1347 17.357 21.1347 19.7949 19.9802C19.8975 20.0652 20.0029 20.1502 20.1084 20.2293C19.7011 20.4725 19.2733 20.6835 18.825 20.8534C19.0594 21.3222 19.3319 21.7705 19.6367 22.1925C20.8761 21.8057 22.1361 21.2168 23.4341 20.2469C23.7506 16.9505 22.9067 14.0906 21.2072 11.5531ZM13.5068 18.4976C12.7655 18.4976 12.1589 17.8061 12.1589 16.9622C12.1589 16.1183 12.7538 15.4268 13.5068 15.4268C14.2599 15.4268 14.8693 16.1183 14.8547 16.9622C14.8576 17.8061 14.2628 18.4976 13.5068 18.4976ZM18.4939 18.4976C17.7526 18.4976 17.1461 17.8061 17.1461 16.9622C17.1461 16.1183 17.7409 15.4268 18.4939 15.4268C19.247 15.4268 19.8564 16.1183 19.8418 16.9622C19.8418 17.8061 19.247 18.4976 18.4939 18.4976Z" fill="#F8F9FF"/>
</g>
<defs>
<clipPath id="clip0_11_127">
<rect width="15" height="11.6122" fill="white" transform="translate(8.5 10.5803)"/>
</clipPath>
</defs>
</svg>
