<svg width="23" height="25" viewBox="0 0 23 25" fill="none" xmlns="http://www.w3.org/2000/svg">
<path d="M0.453037 0.395039C0.134542 0.775849 -0.0262765 1.26404 0.00353005 1.75959V23.2404C-0.0263631 23.736 0.134465 24.2242 0.453037 24.605L0.524912 24.675L12.5581 12.642V12.3581L0.524912 0.324524L0.453037 0.395039Z" fill="url(#paint0_linear_6015_12)"/>
<path d="M16.5688 16.6547L12.558 12.6419V12.358L16.5698 8.34628L16.6602 8.39786L21.4125 11.0981C22.7699 11.8693 22.7699 13.1312 21.4125 13.9029L16.6602 16.6031L16.5688 16.6547Z" fill="url(#paint1_linear_6015_12)"/>
<path d="M16.6602 16.6026L12.558 12.5L0.453003 24.605C0.729592 24.8489 1.0828 24.9884 1.45144 24.9993C1.82007 25.0102 2.1809 24.8918 2.47141 24.6646L16.6602 16.6026Z" fill="url(#paint2_linear_6015_12)"/>
<path d="M16.6602 8.39738L2.47141 0.335391C2.1809 0.108203 1.82007 -0.0102021 1.45144 0.000689668C1.0828 0.0115814 0.729592 0.151084 0.453003 0.395027L12.558 12.5L16.6602 8.39738Z" fill="url(#paint3_linear_6015_12)"/>
<path opacity="0.2" d="M16.5698 16.5123L2.47141 24.5227C2.19209 24.7354 1.85117 24.8514 1.50013 24.8532C1.14908 24.8551 0.806943 24.7427 0.525363 24.5331L0.453003 24.6055L0.524878 24.6755L0.525363 24.675C0.806895 24.8848 1.14905 24.9972 1.50013 24.9953C1.85121 24.9935 2.19214 24.8774 2.47141 24.6646L16.6602 16.6026L16.5698 16.5123Z" fill="black"/>
<path opacity="0.12" d="M0.453015 24.4635C0.13455 24.0827 -0.026264 23.5945 0.00350773 23.099V23.2409C-0.0262819 23.7364 0.134534 24.2246 0.453015 24.6054L0.525375 24.5331L0.453015 24.4635Z" fill="black"/>
<path opacity="0.12" d="M21.4125 13.7605L16.5698 16.5123L16.6602 16.6026L21.4125 13.9024C21.6921 13.7811 21.934 13.587 22.113 13.3404C22.2921 13.0939 22.4018 12.8038 22.4307 12.5004C22.3706 12.7751 22.2473 13.0321 22.0706 13.2508C21.8938 13.4695 21.6685 13.644 21.4125 13.7605Z" fill="black"/>
<path opacity="0.25" d="M2.47146 0.477764L21.4125 11.2395C21.6686 11.3559 21.894 11.5305 22.0707 11.7493C22.2475 11.9681 22.3708 12.2252 22.4307 12.5C22.402 12.1965 22.2924 11.9063 22.1133 11.6596C21.9342 11.413 21.6922 11.2189 21.4125 11.0976L2.47146 0.335861C1.114 -0.43543 0.00354004 0.205223 0.00354004 1.76004V1.90195C0.00354004 0.347224 1.114 -0.29343 2.47146 0.477764Z" fill="white"/>
<defs>
<linearGradient id="paint0_linear_6015_12" x1="11.491" y1="1.53309" x2="-4.80941" y2="17.8335" gradientUnits="userSpaceOnUse">
<stop stop-color="#00A0FF"/>
<stop offset="0.00657" stop-color="#00A1FF"/>
<stop offset="0.2601" stop-color="#00BEFF"/>
<stop offset="0.5122" stop-color="#00D2FF"/>
<stop offset="0.7604" stop-color="#00DFFF"/>
<stop offset="1" stop-color="#00E3FF"/>
</linearGradient>
<linearGradient id="paint1_linear_6015_12" x1="23.1799" y1="12.5005" x2="-0.321977" y2="12.5005" gradientUnits="userSpaceOnUse">
<stop stop-color="#FFE000"/>
<stop offset="0.4087" stop-color="#FFBD00"/>
<stop offset="0.7754" stop-color="#FFA500"/>
<stop offset="1" stop-color="#FF9C00"/>
</linearGradient>
<linearGradient id="paint2_linear_6015_12" x1="14.4312" y1="14.7292" x2="-7.67341" y2="36.8338" gradientUnits="userSpaceOnUse">
<stop stop-color="#FF3A44"/>
<stop offset="1" stop-color="#C31162"/>
</linearGradient>
<linearGradient id="paint3_linear_6015_12" x1="-2.59493" y1="-6.75534" x2="7.27569" y2="3.11528" gradientUnits="userSpaceOnUse">
<stop stop-color="#32A071"/>
<stop offset="0.0685" stop-color="#2DA771"/>
<stop offset="0.4762" stop-color="#15CF74"/>
<stop offset="0.8009" stop-color="#06E775"/>
<stop offset="1" stop-color="#00F076"/>
</linearGradient>
</defs>
</svg>
