<svg width="20" height="20" viewBox="0 0 20 20" fill="none" xmlns="http://www.w3.org/2000/svg">
<path d="M7.35156 14.4219C6.46094 17.0703 2.92969 17.0703 2.92969 17.0703C2.92969 17.0703 2.92969 13.539 5.57812 12.6484" stroke="#2D2D2D" stroke-width="1.66667" stroke-linecap="round" stroke-linejoin="round"/>
<path d="M15.3047 8.23439L10 13.5391L6.46094 10L11.7656 4.69532C13.7734 2.68751 15.7813 2.71095 16.6406 2.83595C16.7732 2.85364 16.8963 2.91448 16.9909 3.00908C17.0855 3.10368 17.1464 3.22678 17.1641 3.35939C17.2891 4.21876 17.3125 6.22657 15.3047 8.23439Z" stroke="#2D2D2D" stroke-width="1.66667" stroke-linecap="round" stroke-linejoin="round"/>
<path d="M14.4219 9.11723V14.1641C14.4195 14.329 14.3521 14.4862 14.2344 14.6016L11.7109 17.1329C11.6309 17.2128 11.5306 17.2695 11.4208 17.297C11.3111 17.3244 11.1959 17.3216 11.0876 17.2887C10.9794 17.2558 10.882 17.1941 10.8061 17.1103C10.7301 17.0264 10.6783 16.9235 10.6562 16.8125L10 13.5391" stroke="#2D2D2D" stroke-width="1.66667" stroke-linecap="round" stroke-linejoin="round"/>
<path d="M10.8829 5.57811H5.836C5.67115 5.58045 5.5139 5.64785 5.3985 5.76561L2.86725 8.28904C2.78729 8.3691 2.73055 8.46937 2.70311 8.57914C2.67567 8.68892 2.67854 8.80408 2.71142 8.91235C2.7443 9.02062 2.80596 9.11794 2.88982 9.19391C2.97367 9.26988 3.07658 9.32166 3.18756 9.34373L6.461 9.99998" stroke="#2D2D2D" stroke-width="1.66667" stroke-linecap="round" stroke-linejoin="round"/>
</svg>
