<svg width="32" height="32" viewBox="0 0 32 32" fill="none" xmlns="http://www.w3.org/2000/svg">
<path fill-rule="evenodd" clip-rule="evenodd" d="M0 16C0 7.16344 7.16344 0 16 0C24.8366 0 32 7.16344 32 16C32 24.8366 24.8366 32 16 32C7.16344 32 0 24.8366 0 16Z" fill="#4E4D4D"/>
<path d="M9.8226 8.15674L8.80005 10.8852V21.7969H12.5491V23.843H14.5961L16.6402 21.796H19.7089L23.8 17.7058V8.15674H9.8226ZM11.1853 9.51948H22.4373V17.0224L20.05 19.4097H16.3L14.2559 21.4538V19.4097H11.1853V9.51948Z" fill="#F8F9FF"/>
<path d="M14.9373 16.341H16.3V12.2499H14.9373V16.341ZM18.6863 16.341H20.0491V12.2499H18.6863V16.341Z" fill="#F8F9FF"/>
</svg>
